PathFileType	4	(X/Y/Z)	C:/Users/beibeiliu/ov580/test_trc\sequence.40_training_dense_right.trc
DataRate	CameraRate	NumFrames	NumMarkers	Units	OrigDataRate	OrigDataStartFrame	OrigNumFrames
120	120	16	19	mm	120	201	400
Frame#	Time	ThumbCMC			ThumbMCP			ThumbIP			ThumbTip			IndexMCP			IndexPIP			IndexTip			MiddleMCP			MiddlePIP			MiddleTip			RingMCP			RingPIP			RingTip			PinkyMCP			PinkyPIP			PinkyTip			BackHand1			BackHand2			BackHand3	
		X0	Y0	Z0	X1	Y1	Z1	X2	Y2	Z2	X3	Y3	Z3	X4	Y4	Z4	X5	Y5	Z5	X6	Y6	Z6	X7	Y7	Z7	X8	Y8	Z8	X9	Y9	Z9	X10	Y10	Z10	X11	Y11	Z11	X12	Y12	Z12	X13	Y13	Z13	X14	Y14	Z14	X15	Y15	Z15	X16	Y16	Z16	X17	Y17	Z17	X18	Y18	Z18	
200	1.66667	269.704	28.3581	59.9608	255.219	34.5916	33.5556	248.434	29.1721	7.80743	238.41	23.9283	-9.45187	292.643	-1.10749	7.49063	281.22	-2.69469	-18.5043	261.839	2.99943	-32.3678	283.27	-24.9962	5.85031	272.023	-25.0104	-18.4604	245.087	-12.9492	-29.8032	275.063	-38.0971	18.4762	266.652	-39.8805	-8.25344	248.548	-28.7791	-25.0435	261.246	-46.7713	37.3281	263.677	-54.2178	12.5885	259.209	-56.1077	-7.47172	277.166	-22.014	61.9282	269.483	-15.9599	89.8437	288.02	0.567479	68.6331	
201	1.675	268.368	32.2128	62.1016	253.942	35.224	30.1716	247.488	31.923	11.6195	237.607	24.4181	-8.90704	292.07	1.07172	8.50414	279.561	-2.31673	-17.9212	260.558	4.74764	-31.7051	283.63	-24.0083	8.06231	275.341	-21.2804	-19.9117	245.17	-11.3744	-31.79	275.266	-37.0619	21.5359	269.886	-42.2312	-4.8616	255.731	-29.3822	-24.6216	262.819	-44.4722	37.9011	265.165	-55.9006	17.9929	260.395	-56.5326	-5.6889	274.028	-25.0494	62.8636	272.902	-13.6567	87.0496	286.105	6.4654	69.9707	
202	1.68333	265.949	30.8707	59.7402	250.812	34.6485	33.1094	245.186	31.1922	8.79339	237.702	20.2171	-8.15104	291.859	3.95635	4.90596	278.188	0.890258	-17.2722	256.907	4.48554	-30.8901	286.547	-17.6538	9.86916	274.43	-22.4471	-19.1976	251.257	-12.2693	-31.4621	280.458	-33.1367	19.3465	272.855	-39.3246	-7.00228	258.626	-32.4375	-23.0379	265.988	-46.0582	37.9245	269.906	-53.7662	17.2887	264.164	-59.3698	-3.86193	276.828	-21.7883	66.3603	270.439	-14.8762	87.1174	285.518	6.15767	69.8573	
203	1.69167	264.921	34.7782	57.92	249.031	37.506	32.2924	243.607	29.4718	9.66404	235.64	20.8395	-9.81022	289.908	6.34073	4.74831	278.607	5.43267	-17.3409	253.369	9.0947	-31.8792	287.835	-18.273	6.25551	276.25	-19.8652	-17.9939	248.625	-15.2662	-30.797	281.356	-33.9376	20.6426	275.837	-36.9198	-7.99653	257.839	-32.233	-24.2439	272.006	-44.8023	35.4251	272.719	-52.2182	15.1352	268.817	-56.9623	-2.4413	278.963	-19.4672	64.9274	271.114	-13.6894	91.7505	288.074	8.45716	69.0216	
204	1.7	259.878	33.9857	61.8813	246.13	33.242	33.1442	240.649	30.7466	9.88922	233	21.4658	-7.21012	288.555	6.28394	4.92027	274.954	7.40461	-17.7227	249.601	5.55864	-29.5337	287.636	-16.3744	7.69437	275.736	-20.4584	-16.9792	250.459	-13.2998	-32.0519	285.296	-30.5546	17.5513	276.443	-37.3014	-7.60759	261.083	-28.6589	-24.8473	274.167	-41.9398	37.2447	274.537	-54.0579	16.8018	272.43	-54.7213	-2.96105	278.13	-16.9472	64.866	273.35	-11.0312	88.3247	284.908	11.4016	69.9093	
205	1.70833	256.4	33.5632	60.383	241.065	37.3744	34.0695	236.384	30.1853	11.5782	231.716	17.9005	-6.8757	285.36	10.3814	4.79843	270.863	8.95508	-17.7145	251.991	7.59046	-27.2442	287.587	-12.0726	10.7702	276.962	-16.9704	-16.0431	246.429	-15.0189	-30.8682	286.884	-30.1609	18.2989	281.021	-31.739	-5.12501	263.594	-27.0674	-22.6018	276.239	-37.4524	37.8505	280.24	-49.2039	16.9825	276.022	-51.7207	-5.8326	281.676	-17.5739	65.2449	274.435	-5.78168	89.773	284.477	12.5601	69.8821	
206	1.71667	254.325	34.0991	59.9819	238.029	33.6275	31.8592	232.573	28.1983	8.3915	227.781	18.2375	-8.20806	283.34	12.487	5.40895	269.057	10.813	-15.2947	245.378	6.3754	-26.2697	288.42	-8.20438	11.0394	277.471	-15.5812	-16.2933	248.552	-13.6115	-30.3455	286.59	-25.3317	21.5706	279.642	-31.0169	-7.94204	260.117	-28.9996	-24.7139	278.664	-36.5828	36.9778	283.297	-44.5309	13.6456	279.044	-48.9912	-4.56282	282.011	-10.7846	64.0869	274.235	-7.98012	86.9724	281.055	13.8027	68.763	
207	1.725	249.773	33.7907	62.8997	236.441	30.1475	33.4401	230.112	28.4281	9.34612	224.799	18.8361	-7.12128	280.345	16.8623	4.98752	265.918	9.72653	-15.5092	243.264	7.01456	-23.2668	286.956	-6.36776	5.57139	277.168	-13.1917	-16.3356	247.306	-12.7213	-30.7527	285.832	-22.4991	21.4889	278.997	-28.8709	-8.85988	263.274	-28.0644	-22.6391	278.807	-34.2725	36.7493	283.249	-46.7805	14.0672	280.532	-46.6547	-5.46243	282.224	-9.99241	65.0483	273.733	-7.38165	91.6656	279.707	16.8196	72.1059	
208	1.73333	248.625	34.6712	61.0664	233.149	33.3071	34.6227	230.162	26.7723	9.86178	225.478	17.5728	-10.9714	279.02	19.7308	6.32384	265.172	14.831	-14.2011	235.287	7.37825	-23.2052	286.636	-3.16607	5.64108	276.613	-13.0317	-17.2802	249.113	-15.1602	-30.1771	286.564	-18.6607	19.563	281.841	-24.2204	-4.41138	262.61	-26.863	-22.8742	281.828	-34.4651	32.4489	284.04	-44.4524	16.8784	281.037	-44.6939	-5.22525	279.926	-7.67458	63.6788	275.053	-4.25955	87.3312	279.717	16.554	67.4697	
209	1.74167	245.983	36.3736	61.5355	232.736	31.087	32.7771	228.824	25.575	12.1666	224.426	14.9935	-9.97195	277.209	20.3217	8.39949	260.803	12.263	-13.8727	237.715	6.41847	-20.4201	285.714	-3.89326	9.43591	275.631	-12.412	-17.5254	248.103	-11.8747	-30.1102	286.628	-18.2793	18.8865	278.248	-27.0765	-9.59959	258.011	-27.3376	-24.9103	281.68	-32.6264	33.2607	284.63	-40.7053	11.2757	280.556	-43.8294	-6.88169	280.585	-11.4058	62.9344	272.089	-6.21849	87.8096	277.326	15.478	68.6345	
210	1.75	246.548	32.2424	63.8348	233.595	28.8193	32.8425	228.367	23.1524	10.9227	222.086	16.3774	-4.75096	274.553	20.138	5.12806	260.477	12.1202	-13.0148	230.722	7.71018	-20.3119	285.119	-4.40036	5.00125	273.726	-6.89555	-19.3388	248.17	-12.9747	-29.2962	285.265	-18.3037	20.7532	278.158	-22.802	-7.95261	260.218	-23.4898	-23.6974	279.387	-32.5849	37.3189	283.611	-39.5274	13.9454	277.807	-42.3435	-6.43334	278.74	-6.28019	64.0427	272.419	-2.42499	90.7413	276.488	19.3809	70.6486	
211	1.75833	243.612	36.5491	60.8932	227.816	34.9631	34.9971	223.915	28.1637	10.4546	218.953	17.2817	-8.5036	271.524	20.4362	3.38518	256.122	13.75	-14.6358	227.79	7.00237	-19.3095	283.733	0.134891	7.78924	272.941	-7.69564	-17.0132	246.388	-13.0748	-29.7835	284.317	-16.1197	16.1085	277.527	-25.8096	-8.09048	257.768	-27.3282	-22.9934	280.444	-33.1585	34.5404	283.387	-37.8033	17.0713	276.284	-44.4729	-7.5943	279.995	-5.32152	62.1256	269.831	-4.17929	89.39	276.859	18.9045	68.6948	
212	1.76667	243.245	36.1959	59.7448	228.892	30.5379	36.4881	222.045	27.9376	11.2385	218.016	16.271	-8.45378	270.754	20.6834	4.27769	255.473	13.8052	-12.4036	227.178	6.39167	-19.0703	282.776	-2.47085	4.77141	271.905	-6.25187	-16.9843	245.698	-14.7665	-29.6748	284.658	-21.1991	16.3471	276.318	-23.704	-8.82247	256.927	-26.3287	-23.4734	280.21	-34.371	33.3117	282.522	-40.2609	12.8385	274.393	-44.7301	-7.51339	279.39	-5.9932	64.4882	270.304	-1.29639	86.3393	274.555	20.8047	69.0512	
213	1.775	242.71	34.3943	62.8576	228.341	32.2047	32.4576	222.622	25.5906	10.6648	219.719	13.2809	-9.36028	270.53	21.3961	8.09875	254.24	13.9445	-12.3369	225.863	6.0912	-18.9265	282.08	-1.23672	8.96151	271.266	-8.53165	-18.144	241.674	-17.6012	-29.9925	283.875	-16.1969	16.2205	276.946	-23.6877	-6.20014	255.546	-23.3077	-24.9051	278.806	-32.3728	34.8609	281.099	-41.3997	13.7167	275.882	-41.0692	-6.0909	278.099	-7.08435	67.5322	269.425	-3.49085	90.9592	272.641	21.6899	73.0636	
214	1.78333	241.036	35.8994	64.0803	228.204	30.9053	37.6792	222.107	26.7682	10.6739	216.947	16.5605	-6.40414	269.724	21.0797	6.47415	254.244	11.7518	-12.1702	227.204	6.15576	-17.9437	281.073	0.682512	7.12043	272.302	-10.1422	-16.1892	244.267	-13.4035	-31.4432	283.782	-15.8472	16.3074	276.649	-23.3946	-8.74874	258.579	-25.3725	-23.5249	279.212	-34.4869	34.7705	281.449	-39.1124	11.5852	275.418	-41.4481	-7.87143	279.546	-9.53889	63.6656	272.315	-5.8277	89.117	271.927	18.3291	72.4004	
215	1.79167	241.848	34.8835	62.6036	228.643	31.3483	33.7231	222.954	26.6129	13.4357	217.724	17.3445	-7.17347	269.993	18.5083	5.1959	252.932	12.3628	-14.5194	228.134	5.12251	-18.0153	280.715	1.65685	4.66047	271.981	-7.95986	-17.5468	243.476	-15.9741	-31.1355	282.995	-19.4664	17.491	275.598	-21.6374	-10.0057	259.353	-22.9062	-22.8279	280.028	-32.3105	33.4692	281.877	-41.3096	14.6979	278.166	-42.9501	-5.42792	277.646	-6.58534	65.1584	270.596	-3.03719	88.7462	273.778	22.3058	69.868	
